<svg width="117" height="39" viewBox="0 0 117 39" fill="none" xmlns="http://www.w3.org/2000/svg">
<path d="M25.0647 19.5764V35.9539C25.0647 37.4096 25.4903 37.7736 25.7032 37.7736H26.3417H26.9802C27.193 37.7736 27.6187 37.4096 27.6187 35.9539V19.5764" stroke="#B73535" stroke-width="1.20289" stroke-linecap="round"/>
<path d="M28.1507 14.7877C28.1507 15.7242 27.3703 15.9583 26.9801 15.9583" stroke="#B73535" stroke-width="1.30313" stroke-linecap="square"/>
<path d="M30.8488 13.3794L30.8504 13.4131L30.8558 13.4464C31.1732 15.424 30.5943 16.8549 29.6908 17.7966C28.7694 18.7568 27.4789 19.2411 26.3416 19.2411C24.9891 19.2411 23.7001 18.6842 22.8322 17.6474C21.9706 16.618 21.4788 15.0601 21.8269 12.9711L21.8315 12.9438L21.8335 12.9161C21.9876 10.8101 22.5781 8.84251 23.4263 7.42058C24.2878 5.97627 25.3257 5.22644 26.3416 5.22644C27.4247 5.22644 28.4898 6.0401 29.3476 7.58414C30.1921 9.10423 30.7459 11.1916 30.8488 13.3794Z" stroke="#B73535" stroke-width="1.20289"/>
<path d="M37.3041 19.5764V35.9539C37.3041 37.4096 37.7298 37.7736 37.9426 37.7736H38.5811H39.2196C39.4324 37.7736 39.8581 37.4096 39.8581 35.9539V19.5764" stroke="#B73535" stroke-width="1.20289" stroke-linecap="round"/>
<path d="M40.3902 14.7877C40.3902 15.7242 39.6098 15.9583 39.2196 15.9583" stroke="#B73535" stroke-width="1.30313" stroke-linecap="square"/>
<path d="M43.0883 13.3794L43.0899 13.4131L43.0952 13.4464C43.4126 15.424 42.8338 16.8549 41.9302 17.7966C41.0089 18.7568 39.7183 19.2411 38.5811 19.2411C37.2285 19.2411 35.9395 18.6842 35.0716 17.6474C34.21 16.618 33.7182 15.0601 34.0664 12.9711L34.0709 12.9438L34.0729 12.9161C34.2271 10.8101 34.8175 8.84251 35.6657 7.42058C36.5272 5.97627 37.5651 5.22644 38.5811 5.22644C39.6642 5.22644 40.7292 6.0401 41.587 7.58414C42.4315 9.10423 42.9853 11.1916 43.0883 13.3794Z" stroke="#B73535" stroke-width="1.20289"/>
<path d="M6.43383 17.7539C6.89774 17.7253 7.3416 17.605 7.76541 17.3931C8.19495 17.1755 8.53858 16.8605 8.79631 16.4481C9.06549 16.0186 9.20008 15.5003 9.20008 14.8932V14.7987C9.18289 14.1515 8.93662 13.6561 8.46127 13.3125C8.24363 13.1521 7.98018 13.0261 7.67091 12.9345C7.06383 12.7684 6.44243 12.651 5.8067 12.5823C5.17671 12.5135 4.57822 12.3417 4.01123 12.0668C3.5015 11.8263 3.12064 11.4741 2.86865 11.0102C2.61665 10.5405 2.49065 10.0308 2.49065 9.48099C2.49065 8.40428 2.86578 7.52515 3.61605 6.84361C4.38349 6.13344 5.35139 5.77835 6.51974 5.77835H6.77747C8.05463 5.83562 9.13994 6.15348 10.0334 6.73193L9.82721 8.536C9.81575 8.63909 9.76134 8.69064 9.66398 8.69064H9.62962C9.55516 8.68491 9.48357 8.60473 9.41485 8.4501C9.16858 7.93465 8.81063 7.49652 8.34099 7.1357C7.87136 6.76916 7.36451 6.57443 6.82042 6.55153H6.68297C6.15606 6.55153 5.68643 6.64602 5.27407 6.83502C5.0049 6.97248 4.79013 7.12425 4.62976 7.29034C4.48086 7.4507 4.34913 7.64829 4.23459 7.8831C4.14295 8.0721 4.07136 8.2926 4.01982 8.54459C3.97973 8.72787 3.95968 8.90254 3.95968 9.06863C3.95968 9.292 3.99404 9.49817 4.06277 9.68717C4.18304 10.0709 4.38922 10.3658 4.68131 10.572C4.90467 10.7381 5.14808 10.8527 5.41153 10.9157C5.55471 10.9557 5.72939 10.9958 5.93557 11.0359C6.14175 11.0703 6.35652 11.1047 6.57988 11.139C6.90633 11.1906 7.24996 11.245 7.61078 11.3022C7.97732 11.3538 8.3324 11.4311 8.67604 11.5342C9.24876 11.7175 9.67543 11.9609 9.95607 12.2644C10.1622 12.4992 10.3312 12.757 10.4629 13.0376C10.6176 13.4156 10.6949 13.8308 10.6949 14.2833C10.6949 15.5089 10.1966 16.5283 9.20008 17.3416C8.68463 17.7654 8.11477 18.0775 7.4905 18.278C6.98651 18.4383 6.44815 18.53 5.87543 18.5529C5.74943 18.5586 5.6263 18.5615 5.50603 18.5615C4.70994 18.5615 3.94823 18.4498 3.22087 18.2264L2.40474 15.9585C2.39329 15.9298 2.38756 15.9012 2.38756 15.8726C2.38756 15.8153 2.40761 15.758 2.4477 15.7007C2.49351 15.6263 2.55365 15.5891 2.6281 15.5891C2.69683 15.6062 2.76842 15.6893 2.84287 15.8382C3.20942 16.6343 3.67046 17.1669 4.226 17.4361C4.68417 17.6594 5.26548 17.7711 5.96993 17.7711C6.11884 17.7711 6.27347 17.7654 6.43383 17.7539ZM14.3742 16.9722C14.3742 17.3445 14.5173 17.5821 14.8037 17.6852C15.0901 17.7826 15.2332 17.9029 15.2332 18.046C15.2332 18.1663 15.176 18.2264 15.0614 18.2264H12.1491C12.0289 18.2264 11.9687 18.1663 11.9687 18.046C11.9687 17.9029 12.109 17.7826 12.3897 17.6852C12.6703 17.5821 12.8106 17.3445 12.8106 16.9722L12.8278 7.42779C12.8278 7.06125 12.6846 6.82643 12.3983 6.72334C12.1119 6.62025 11.9687 6.49425 11.9687 6.34535C11.9687 6.22507 12.0289 6.16494 12.1491 6.16494H17.2177C17.8076 6.16494 18.4233 6.27089 19.0647 6.4828C19.7062 6.68898 20.2016 7.09275 20.5509 7.6941C20.8259 8.18092 20.9633 8.76509 20.9633 9.44663C20.9518 10.0938 20.7657 10.6751 20.4049 11.1906C20.0956 11.6316 19.6546 11.9609 19.0819 12.1785C18.5149 12.3904 17.9966 12.4964 17.527 12.4964H14.3742V16.9722ZM14.3742 6.87798V11.895H16.3672C16.7624 11.895 17.1633 11.8377 17.5699 11.7232C17.9766 11.6087 18.3259 11.4053 18.618 11.1132C19.0762 10.6723 19.3053 10.0881 19.3053 9.36072C19.3053 8.662 19.0676 8.07783 18.5922 7.6082C18.0825 7.12138 17.3981 6.87798 16.539 6.87798H14.3742ZM54.8599 16.4825V7.42779C54.8599 7.06125 54.7167 6.82643 54.4304 6.72334C54.1497 6.62025 54.0094 6.49425 54.0094 6.34535C54.0094 6.22507 54.0667 6.16494 54.1812 6.16494H56.3719C56.4922 6.16494 56.5523 6.22507 56.5523 6.34535C56.5523 6.49425 56.4091 6.62025 56.1228 6.72334C55.8364 6.82643 55.6932 7.06125 55.6932 7.42779L55.6846 18.5958L54.164 18.2264L45.934 8.01196V16.9722C45.934 17.3445 46.0772 17.5821 46.3636 17.6852C46.6499 17.7826 46.7931 17.9029 46.7931 18.046C46.7931 18.1663 46.733 18.2264 46.6127 18.2264H44.4307C44.3104 18.2264 44.2502 18.1663 44.2502 18.046C44.2502 17.9029 44.3934 17.7826 44.6798 17.6852C44.9661 17.5821 45.1093 17.3445 45.1093 16.9722V7.42779C45.1093 7.06125 44.9661 6.82643 44.6798 6.72334C44.3934 6.62025 44.2502 6.49425 44.2502 6.34535C44.2502 6.22507 44.3104 6.16494 44.4307 6.16494H46.6385L54.8599 16.4825ZM64.4926 15.632L65.5149 16.8949C65.7955 17.2614 66.2423 17.5879 66.8551 17.8742C67.0097 17.9429 67.1071 18.0117 67.1472 18.0804C67.1586 18.1148 67.1644 18.1405 67.1644 18.1577C67.1529 18.1806 67.1472 18.1949 67.1472 18.2007C67.1185 18.2293 67.0784 18.2436 67.0269 18.2436H64.9307C64.7303 18.2436 64.5069 18.0489 64.2607 17.6594C64.0717 17.3674 63.8769 17.1039 63.6765 16.8691C63.2126 17.4361 62.72 17.8513 62.1989 18.1148C61.672 18.3725 61.0792 18.5013 60.4206 18.5013C59.6417 18.5013 59.0203 18.2694 58.5564 17.8055C58.1383 17.3759 57.9292 16.829 57.9292 16.1646C57.9292 16.0959 57.9321 16.0272 57.9378 15.9585C57.9722 15.2712 58.1812 14.6584 58.5649 14.12C58.9258 13.5931 59.5443 13.0376 60.4206 12.4534C60.0712 11.9838 59.7992 11.517 59.6044 11.0531C59.4326 10.6579 59.3467 10.237 59.3467 9.79026C59.3467 9.71581 59.3496 9.63849 59.3553 9.55831C59.3839 8.80232 59.6331 8.18951 60.1027 7.71988C60.5609 7.26743 61.1594 7.0412 61.8982 7.0412C62.6255 7.0412 63.1811 7.22447 63.5648 7.59101C63.9256 7.93465 64.106 8.38996 64.106 8.95695V9.103C64.0659 9.70435 63.8712 10.2398 63.5218 10.7095C63.1496 11.202 62.5826 11.686 61.8209 12.1613L64.1232 15.1767L65.0854 13.3812C65.1312 13.2896 65.1598 13.1951 65.1713 13.0977C65.177 13.0634 65.1799 13.0319 65.1799 13.0032C65.1799 12.946 65.1713 12.8915 65.1541 12.84C65.1312 12.7713 65.0997 12.714 65.0596 12.6682C65.0252 12.6224 64.9995 12.5737 64.9823 12.5221C64.9766 12.4992 64.9737 12.4792 64.9737 12.462V12.4362C64.9737 12.4305 64.9794 12.4105 64.9909 12.3761C65.031 12.2673 65.0911 12.2129 65.1713 12.2129H67.3877C67.445 12.2129 67.4879 12.2301 67.5166 12.2644C67.5223 12.2701 67.5252 12.2816 67.5252 12.2988V12.316C67.5252 12.3331 67.5223 12.3532 67.5166 12.3761C67.4822 12.4391 67.3848 12.5107 67.2245 12.5909C67.1386 12.631 67.0441 12.6739 66.941 12.7197C66.8379 12.7655 66.7377 12.82 66.6403 12.883C66.2165 13.1579 65.8557 13.5187 65.5579 13.9654C65.2601 14.4121 64.905 14.9677 64.4926 15.632ZM61.4858 11.706C62.007 11.3967 62.3879 11.0474 62.6284 10.6579C62.8632 10.2742 63.0007 9.7874 63.0408 9.1975V9.06863C63.0408 8.67918 62.9692 8.34414 62.826 8.06351C62.6656 7.75997 62.3363 7.6082 61.838 7.6082C61.4486 7.6082 61.1422 7.73706 60.9188 7.99478C60.6897 8.26969 60.5637 8.63909 60.5408 9.103C60.5351 9.166 60.5322 9.22613 60.5322 9.2834C60.5322 10.0909 60.8501 10.8985 61.4858 11.706ZM63.3243 16.388L60.7212 12.9431C59.8221 13.596 59.3496 14.3921 59.3038 15.3313C59.298 15.3886 59.2952 15.4487 59.2952 15.5117C59.2952 16.0959 59.4555 16.5942 59.7763 17.0065C60.1256 17.4647 60.5723 17.6938 61.1164 17.6938C61.5803 17.6938 61.9927 17.5678 62.3535 17.3158C62.72 17.0638 63.0436 16.7545 63.3243 16.388ZM69.2887 18.2264C69.1799 18.2264 69.1255 18.1663 69.1255 18.046C69.1255 17.9773 69.1856 17.9057 69.3059 17.8313C69.3918 17.774 69.492 17.7081 69.6065 17.6337C69.7268 17.5592 69.8242 17.459 69.8986 17.333C69.9559 17.2185 69.9845 17.0982 69.9845 16.9722V7.42779C69.9845 7.05552 69.8414 6.8207 69.555 6.72334C69.2686 6.62025 69.1255 6.49425 69.1255 6.34535C69.1255 6.22507 69.1856 6.16494 69.3059 6.16494H77.2781V8.37278C77.2781 8.49305 77.218 8.55319 77.0977 8.55319C77.0405 8.55319 76.9345 8.43864 76.7799 8.20955C76.4935 7.81438 76.2444 7.50797 76.0325 7.29034C75.8263 7.0727 75.5514 6.96388 75.2078 6.96388H71.5395V11.6287H73.5068C73.7473 11.6287 73.9592 11.5227 74.1425 11.3108C74.2456 11.1848 74.3286 11.0588 74.3916 10.9328C74.4546 10.8068 74.5319 10.7438 74.6236 10.7438C74.7381 10.7438 74.7954 10.804 74.7954 10.9242V13.1063C74.7954 13.2266 74.7381 13.2867 74.6236 13.2867C74.5205 13.2867 74.4317 13.2151 74.3573 13.072C74.2885 12.923 74.194 12.7799 74.0738 12.6424C73.9134 12.4821 73.7244 12.4019 73.5068 12.4019H71.5395V16.9722C71.5395 17.1325 71.5767 17.2729 71.6512 17.3931C71.7199 17.4962 71.8058 17.5821 71.9089 17.6509C72.012 17.7139 72.1065 17.7711 72.1924 17.8227C72.3241 17.9029 72.39 17.9773 72.39 18.046C72.39 18.0804 72.3871 18.1062 72.3814 18.1234C72.3413 18.1921 72.2869 18.2264 72.2182 18.2264H69.2887ZM84.2649 6.56012C82.5066 6.56584 81.2781 7.12138 80.5794 8.22673C79.8807 9.32636 79.5313 10.6493 79.5313 12.1957C79.5313 13.7478 79.9695 15.0736 80.8457 16.1732C81.722 17.2671 82.8617 17.8198 84.2649 17.8313H84.3078C85.6766 17.8313 86.802 17.2471 87.684 16.0787C88.5546 14.9218 88.9898 13.6447 88.9898 12.2472V12.1957C88.9784 10.7696 88.6061 9.47527 87.873 8.31264C87.1399 7.14429 85.9372 6.56012 84.2649 6.56012ZM84.2649 5.80413H84.3508C86.2007 5.80413 87.7613 6.37112 89.0328 7.50511C90.2183 8.56464 90.8111 9.96208 90.8111 11.6974C90.8111 11.8521 90.8054 12.0096 90.7939 12.1699C90.6736 14.1401 89.9892 15.6692 88.7407 16.7574C87.4979 17.8399 86.0002 18.4298 84.2477 18.5271C84.116 18.5328 83.9842 18.5357 83.8525 18.5357C82.2604 18.5357 80.8515 17.9859 79.6258 16.8863C78.3659 15.7637 77.7359 14.2947 77.7359 12.4792C77.7359 12.3761 77.7387 12.273 77.7445 12.1699C77.8132 10.2169 78.4432 8.67346 79.6344 7.53947C80.8314 6.40548 82.3749 5.82703 84.2649 5.80413ZM101.741 17.6079C101.901 17.7396 102.11 17.8169 102.368 17.8399C102.528 17.857 102.609 17.9172 102.609 18.0203V18.046C102.591 18.1663 102.531 18.2264 102.428 18.2264H100.135C100.083 18.2264 99.8883 18.0031 99.5503 17.5564C99.2124 17.1096 98.8201 16.577 98.3734 15.9585C97.9267 15.3399 97.4685 14.7071 96.9989 14.0599C96.5292 13.4127 96.1369 12.8915 95.8219 12.4964H94.4474V16.9722C94.4474 17.3445 94.5906 17.5821 94.8769 17.6852C95.1633 17.7826 95.3065 17.9029 95.3065 18.046C95.3065 18.1663 95.2492 18.2264 95.1347 18.2264H92.2224C92.1021 18.2264 92.042 18.1663 92.042 18.046C92.042 17.9029 92.1852 17.7826 92.4715 17.6852C92.7579 17.5821 92.9011 17.3445 92.9011 16.9722V7.42779C92.9011 7.06125 92.7579 6.82643 92.4715 6.72334C92.1852 6.62025 92.042 6.49425 92.042 6.34535C92.042 6.22507 92.1021 6.16494 92.2224 6.16494H97.291C97.8809 6.16494 98.4965 6.27089 99.138 6.4828C99.7794 6.68898 100.275 7.09275 100.624 7.6941C100.899 8.18092 101.037 8.76509 101.037 9.44663C101.025 10.0938 100.839 10.6751 100.478 11.1906C100.192 11.5972 99.7938 11.9093 99.284 12.127C98.7743 12.3389 98.2904 12.4591 97.8322 12.4878L101.741 17.6079ZM94.4474 6.87798V11.895H96.4405C96.8357 11.895 97.2366 11.8377 97.6432 11.7232C98.0498 11.6087 98.3992 11.4053 98.6913 11.1132C99.1494 10.6723 99.3785 10.0881 99.3785 9.36072C99.3785 8.662 99.1409 8.07783 98.6655 7.6082C98.1558 7.12138 97.4714 6.87798 96.6123 6.87798H94.4474ZM106.116 11.8177L110.609 7.56524C111.056 7.14716 111.434 6.78634 111.743 6.4828C111.949 6.27662 112.155 6.17353 112.362 6.17353C112.465 6.17353 112.568 6.1993 112.671 6.25085L113.582 6.69757C113.679 6.75484 113.728 6.82357 113.728 6.90375C113.728 6.93811 113.719 6.97534 113.702 7.01543L113.255 8.26969L112.662 8.02055C112.439 7.92892 112.233 7.8831 112.044 7.8831C111.746 7.8831 111.485 7.99478 111.262 8.21814L107.8 11.5943L114.26 17.5564C114.38 17.6766 114.506 17.7683 114.638 17.8313C114.776 17.8885 114.844 17.9601 114.844 18.046C114.844 18.1663 114.787 18.2264 114.673 18.2264H111.76C111.64 18.2264 111.58 18.1663 111.58 18.046C111.58 18.0002 111.611 17.9487 111.674 17.8914C111.777 17.8055 111.835 17.7282 111.846 17.6594V17.6509C111.846 17.5764 111.743 17.4504 111.537 17.2729L106.116 12.273V16.9722C106.116 17.3445 106.259 17.5821 106.546 17.6852C106.832 17.7826 106.975 17.9029 106.975 18.046C106.975 18.1663 106.918 18.2264 106.803 18.2264H103.891C103.771 18.2264 103.711 18.1663 103.711 18.046C103.711 17.9029 103.854 17.7826 104.14 17.6852C104.427 17.5821 104.57 17.3445 104.57 16.9722V7.42779C104.57 7.06125 104.427 6.82643 104.14 6.72334C103.854 6.62025 103.711 6.49425 103.711 6.34535C103.711 6.22507 103.771 6.16494 103.891 6.16494H106.803C106.918 6.16494 106.975 6.22507 106.975 6.34535C106.975 6.49425 106.832 6.62025 106.546 6.72334C106.259 6.82643 106.116 7.06125 106.116 7.42779V11.8177Z" fill="#025D00"/>
</svg>
